<svg width="252" height="148" viewBox="0 0 252 148" fill="none" xmlns="http://www.w3.org/2000/svg">
<path d="M252 90.1722C251.509 94.0927 248.564 96.543 245.127 96.543H242.672H234.818C231.872 110.265 227.945 119.086 220.09 119.086C211.253 119.086 207.326 109.285 204.38 91.6424C204.38 91.1523 204.38 91.1523 204.38 90.6622C202.907 81.8411 198.489 76.9404 195.544 76.9404C192.598 76.9404 188.18 81.351 186.707 90.6622V91.1523C182.779 111.245 179.343 124.477 175.906 131.828C172.961 138.689 169.034 141.629 164.124 141.629C159.215 141.629 155.288 138.689 152.342 131.828C148.906 124.477 145.469 111.245 141.542 91.1523C132.705 57.8278 120.923 35.2848 107.177 23.0331C96.8674 13.7219 88.0307 13.7219 83.6124 13.7219C74.7757 13.7219 48.2657 13.7219 27.6468 91.1523C21.7557 112.225 18.3193 124.967 16.3555 132.808L13.9009 142.609C12.9191 146.53 9.48259 148 7.02796 148C6.53703 148 5.55518 148 5.06425 148C3.10055 147.51 -0.826858 145.06 0.154994 139.669L2.60962 129.868C4.57333 122.026 8.00981 109.285 13.9009 88.2119C23.7194 51.457 36.4835 26.4636 51.7022 12.7417C64.9572 0 76.7394 0 82.6305 0C87.5398 0 100.795 0 115.032 12.7417C130.741 26.4636 143.505 51.457 153.324 86.7417C153.324 87.2318 153.815 87.7218 153.815 88.2119C155.288 96.053 159.706 99.4834 163.142 99.4834C167.07 99.4834 170.506 95.0728 171.979 88.702C171.979 88.2119 171.979 88.2119 171.979 87.7218C177.379 60.2781 183.761 49.4967 194.562 49.4967C205.362 49.4967 211.744 60.7682 217.144 88.702C217.144 89.192 217.144 89.192 217.144 89.6821C218.126 93.6026 219.108 95.5629 219.599 97.0331C220.09 96.543 220.09 95.0728 220.581 94.0927V93.6026V93.1126C221.563 88.2119 224.999 83.3113 230.399 83.3113H241.691H244.145C244.636 83.3113 244.636 83.3113 245.127 83.3113C247.091 83.8013 249.054 84.7815 250.036 86.7417C250.527 87.7219 250.527 88.2119 251.018 89.1921C252 89.1921 252 89.192 252 90.1722C252 89.6821 252 89.6821 252 90.1722ZM66.43 96.543H104.231C108.159 96.543 111.104 93.6026 111.104 89.6821C111.104 85.7616 108.159 82.8212 104.231 82.8212H66.43C62.5026 82.8212 59.557 85.7616 59.557 89.6821C59.0661 93.6026 62.5026 96.543 66.43 96.543Z" fill="url(#paint0_linear)"/>
<defs>
<linearGradient id="paint0_linear" x1="-0.826858" y1="74.1588" x2="251.918" y2="74.1588" gradientUnits="userSpaceOnUse">
<stop stop-color="#94439D"/>
<stop offset="1" stop-color="#C781A3"/>
</linearGradient>
</defs>
</svg>
